<svg width="22" height="27" viewBox="0 0 22 27" fill="none" xmlns="http://www.w3.org/2000/svg">
<path d="M18.3737 14.3169C18.4117 18.3951 21.9607 19.7522 22 19.7695C21.97 19.8653 21.4329 21.7036 20.1302 23.6024C19.0041 25.2441 17.8353 26.8797 15.9942 26.9136C14.185 26.9468 13.6033 25.8435 11.5349 25.8435C9.46721 25.8435 8.82087 26.8797 7.10833 26.9468C5.33114 27.0139 3.97782 25.1716 2.84233 23.536C0.522096 20.1902 -1.25105 14.0817 1.12983 9.95833C2.3126 7.91065 4.4263 6.61397 6.72054 6.58072C8.4657 6.54752 10.1129 7.75176 11.1798 7.75176C12.2459 7.75176 14.2476 6.30356 16.352 6.51624C17.2329 6.55281 19.7058 6.87117 21.2936 9.18938C21.1657 9.26849 18.343 10.9074 18.3737 14.3169V14.3169ZM14.9737 4.30275C15.9172 3.16361 16.5522 1.57784 16.379 0C15.019 0.0545186 13.3744 0.903925 12.3989 2.04243C11.5247 3.05063 10.759 4.66432 10.9656 6.21093C12.4815 6.3279 14.0301 5.4426 14.9737 4.30275" fill="black"/>
</svg>
