<svg width="1440" height="60" viewBox="0 0 1440 60" fill="none" xmlns="http://www.w3.org/2000/svg">
<g clip-path="url(#clip0_72:550)">
<path d="M0 1.2H111V5.4H222V9H332V1.8H443V1.2H554V6H665V4.8H775V6.6H886V3.6H997H1108H1218V2.4H1329V4.8H1440V1.8V0H1329H1218H1108H997H886H775H665H554H443H332H222H111H0V1.2Z" fill="#A4133C"/>
<path d="M0 4.8H111V8.4H222V10.2H332V11.4H443V9H554V11.4H665V7.8H775V10.2H886V6H997V4.8H1108V10.2H1218V7.2H1329V7.8H1440V10.2V0.6V3.6H1329V1.2H1218V2.4H1108H997H886V5.4H775V3.6H665V4.8H554V0H443V0.6H332V7.8H222V4.2H111V0H0V4.8Z" fill="#B31542"/>
<path d="M0 8.40004H111V10.2H222V15.6H332V13.2H443V13.8H554V15.6H665V9.60004H775V24.6H886V13.2H997V21.6H1108V24.6H1218V23.4H1329V20.4H1440V16.8V9.00004V6.60004H1329V6.00004H1218V9.00004H1108V3.60004H997V4.80004H886V9.00004H775V6.60004H665V10.2H554V7.80004H443V10.2H332V9.00004H222V7.20004H111V3.60004H0V8.40004Z" fill="#C31748"/>
<path d="M0 15.6H111V42.6H222V36H332V25.2H443V28.8H554V45H665V13.8H775V40.8H886V28.8H997V40.2H1108V34.8H1218V33H1329V36.6H1440V43.2V15.6V19.2H1329V22.2H1218V23.4H1108V20.4H997V12H886V23.4H775V8.40001H665V14.4H554V12.6H443V12H332V14.4H222V9.00001H111V7.20001H0V15.6Z" fill="#C9184A"/>
<path d="M0 19.2H111V45.6H222V41.4H332V27H443V34.2H554V52.2H665V19.2H775V43.2H886V40.2H997V42H1108V38.4H1218V37.8H1329V42H1440V51V42V35.4H1329V31.8H1218V33.6H1108V39H997V27.6H886V39.6H775V12.6H665V43.8H554V27.6H443V24H332V34.8H222V41.4H111V14.4H0V19.2Z" fill="#C31748"/>
<path d="M0 25.2H111V57.6H222V52.2H332V37.2H443V45H554V54.6H665V32.4H775V50.4H886V45H997V52.8H1108V47.4H1218V45.6H1329V52.8H1440V54.6V49.8V40.8H1329V36.6H1218V37.2H1108V40.8H997V39H886V42H775V18H665V51H554V33H443V25.8H332V40.2H222V44.4H111V18H0V25.2Z" fill="#B31542"/>
<path d="M0 60.6H111H222H332H443H554H665H775H886H997H1108H1218H1329H1440V53.4V51.6H1329V44.4H1218V46.2H1108V51.6H997V43.8H886V49.2H775V31.2H665V53.4H554V43.8H443V36H332V51H222V56.4H111V24H0V60.6Z" fill="#A4133C"/>
</g>
<defs>
<clipPath id="clip0_72:550">
<rect width="1440" height="60" fill="white"/>
</clipPath>
</defs>
</svg>
